<svg width="704" height="741.61701" xmlns="http://www.w3.org/2000/svg">
 <title>modern_design</title>

 <g>
  <title>background</title>
  <rect fill="none" id="canvas_background" height="602" width="802" y="-1" x="-1"/>
 </g>
 <g>
  <title>Layer 1</title>
  <ellipse id="svg_1" fill="#e6e6e6" ry="18" rx="352" cy="723.61701" cx="352"/>
  <path id="svg_2" fill="#ffb8b8" d="m649.612,460.60262l0,4.35665s7.842,27.88262 -1.74266,27.88262s-13.07,-27.01128 -13.07,-27.01128l0,-5.228l14.81266,0.00001z"/>
  <path id="svg_3" fill="#ffb8b8" d="m475.34562,361.27079l1.74267,-6.97066s9.58465,-21.78329 17.42663,-17.42663s-3.48532,20.912 -3.48532,20.912l-1.74267,4.35666l-13.94131,-0.87137z"/>
  <polygon id="svg_4" fill="#ffb8b8" points="531.111 673.208 532.854 688.02 549.409 690.634 549.409 671.465 531.111 673.208"/>
  <polygon id="svg_5" fill="#ffb8b8" points="622.601 668.851 624.343 690.634 643.513 688.02 640.027 667.108 622.601 668.851"/>
  <polygon id="svg_6" fill="#2f2e41" points="523.269 503.298 519.784 504.169 529.368 596.53 529.368 679.307 553.765 674.95 565.964 529.438 603.431 600.887 621.729 673.208 650.483 667.98 626.957 577.361 611.273 491.099 523.269 503.298"/>
  <path id="svg_7" fill="#2f2e41" d="m540.69551,682.79223s-7.842,-5.228 -10.456,-1.74266s-13.94131,20.912 -13.94131,20.912s-27.88262,28.754 0,27.88262c0,0 18.298,0 21.78329,-10.456c0,0 0.87134,-5.228 6.97066,-5.228s13.07,-6.09933 13.07,-9.58465s-6.09933,-21.08349 -8.71332,-18.38373s-8.71332,-3.39958 -8.71332,-3.39958z"/>
  <path id="svg_8" fill="#2f2e41" d="m634.24179,682.79223s7.842,-5.228 10.456,-1.74266s13.94131,20.912 13.94131,20.912s27.88262,28.754 0,27.88262c0,0 -18.298,0 -21.7833,-10.456c0,0 -0.87133,-5.228 -6.97065,-5.228s-13.07,-6.09933 -13.07,-9.58465s6.09932,-21.08349 8.71332,-18.38373s8.71332,-3.39958 8.71332,-3.39958z"/>
  <circle id="svg_9" fill="#ffb8b8" r="23" cy="333.82384" cx="525.4472"/>
  <polygon id="svg_10" fill="#ffb8b8" points="523.705 352.122 535.903 366.934 557.686 348.636 542.003 336.438 523.705 352.122"/>
  <path id="svg_11" fill="#d0cde1" d="m530.23953,367.37011l0.71231,-6.448l24.46042,-14.05445l33.22948,-3.15293a7.8499,7.8499 0 0 1 8.55669,7.07752l12.33229,130.72235l4.35666,11.32731s-76.6772,43.56659 -94.10383,11.3273l13.07,-67.96389l-27.01128,-51.40857l24.39726,-17.42664z"/>
  <path id="svg_12" fill="#d0cde1" d="m589.49009,345.58681a7.15719,7.15719 0 0 0 1.55228,-0.44232a7.87558,7.87558 0 0 1 9.01377,2.74447l39.09986,53.46309l14.81264,61.86456l-20.912,0l-13.94131,-41.82393l-22.65458,-29.62528l-6.97066,-46.18059z"/>
  <polygon id="svg_13" fill="#d0cde1" points="512.813 383.054 505.842 384.797 484.93 403.095 491.901 361.271 474.474 357.785 460.969 427.928 470.553 437.512 525.012 415.293 512.813 383.054"/>
  <path id="svg_14" fill="#2f2e41" d="m534.60636,333.7485s-9.44763,-13.87373 -14.855,-9.30557s-20.567,13.52851 -23.76128,6.436s9.08225,-20.0864 18.34719,-23.19274s25.53441,-7.23457 30.63719,6.46319a59.901,59.901 0 0 1 2.99419,27.12436l-13.36229,-7.52524z"/>
  <ellipse id="svg_15" fill="#ffb8b8" transform="rotate(-19.97743034362793 -341.4909667968749,212.740707397461) " ry="4.5" rx="2.5" cy="624.1193" cx="440.5328"/>
  <path id="svg_16" fill="#3f3d56" d="m428,172.94725l-3.99878,0l0,-109.54533a63.40185,63.40185 0 0 0 -63.40205,-63.40192l-232.08644,0a63.40185,63.40185 0 0 0 -63.402,63.40192l0,600.97418a63.40185,63.40185 0 0 0 63.402,63.40193l232.08644,0a63.40185,63.40185 0 0 0 63.40205,-63.40193l0,-413.4526l3.99878,0l0,-77.97625z"/>
  <path id="svg_17" fill="#000000" d="m363.15749,16.49498l-30.295,0a22.49484,22.49484 0 0 1 -20.82713,30.99052l-132.95946,0a22.49484,22.49484 0 0 1 -20.82714,-30.99056l-28.29557,0a47.3478,47.3478 0 0 0 -47.34787,47.34774l0,600.09256a47.34781,47.34781 0 0 0 47.34787,47.34781l233.2043,0a47.34781,47.34781 0 0 0 47.34786,-47.34781l0,-600.09252a47.3478,47.3478 0 0 0 -47.34786,-47.34774z"/>
  <rect id="svg_18" fill="#f50004" height="7.67616" width="82.65983" y="177.70431" x="196.31772"/>
  <rect id="svg_19" fill="#e6e6e6" height="7.67616" width="144.06914" y="204.25859" x="196.31772"/>
  <rect id="svg_20" fill="#e6e6e6" height="7.67616" width="143.92807" y="230.81286" x="196.31772"/>
  <rect id="svg_21" fill="#f50004" height="61.40931" width="61.40931" y="177.81829" x="117.77811"/>
  <rect id="svg_22" fill="#f50004" height="7.67616" width="82.65983" y="338.90375" x="196.31772"/>
  <rect id="svg_23" fill="#e6e6e6" height="7.67616" width="144.06914" y="365.45803" x="196.31772"/>
  <rect id="svg_24" fill="#e6e6e6" height="7.67616" width="143.92807" y="392.0123" x="196.31772"/>
  <rect id="svg_25" fill="#f50004" height="61.40931" width="61.40931" y="339.01773" x="117.77811"/>
  <rect id="svg_26" fill="#f50004" height="7.67616" width="82.65983" y="500.10319" x="196.31772"/>
  <rect id="svg_27" fill="#e6e6e6" height="7.67616" width="144.06914" y="526.65747" x="196.31772"/>
  <rect id="svg_28" fill="#e6e6e6" height="7.67616" width="143.92807" y="553.21174" x="196.31772"/>
  <rect id="svg_29" fill="#f50004" height="61.40931" width="61.40931" y="500.21717" x="117.77811"/>
 </g>
</svg>